# xmcd
#
# Track frame offsets: 
#        150
#        43497
#        70192
#        87862
#        119630
#        163672
#
# Disc length: 2327 seconds
#
# Revision: 2
# Processed by: cddbd v1.5.2PL0 Copyright (c) Steve Scherf et al.
# Submitted via: ExactAudioCopyFreeDBPlugin 1.0
#
DISCID=53091506
DTITLE=Bingo Miki And Inner Galaxy Orchestra - Back To The Sea
DYEAR=1978
DGENRE=Big Band
TTITLE0=Back To The Sea (Prologue)
TTITLE1=Swingin' On The Horizon
TTITLE2=When Waves Sing
TTITLE3=Natural Flow
TTITLE4=Merman's Dance
TTITLE5=Back To The Sea (Epilogue)
EXTD=YEAR: 1978
EXTT0=
EXTT1=
EXTT2=
EXTT3=
EXTT4=
EXTT5=
PLAYORDER=
